# xmcd
#
# Track frame offsets:
#	150
#	31586
#	75467
#	104268
#	142433
#	175051
#	202979
#	232474
#	266126
#	285155
#	308206
#	323715
#
# Disc length: 4444 seconds
#
# Revision: 0
# Processed by: cddbd v1.5.2PL0 Copyright (c) Steve Scherf et al.
# Submitted via: EZCDAudioConverter 5.0.3.2
#
DISCID=a5115a0c
DTITLE=Fred Hammond - Worship Journal Live
DYEAR=2016
DGENRE=Gospel
TTITLE0=Always Praise
TTITLE1=God Is My Refuge
TTITLE2=Father Jesus Spirit
TTITLE3=Take Care Of You
TTITLE4=The Lord Is Good
TTITLE5=I Sing Hallelujah
TTITLE6=John 3:16
TTITLE7=One Touch
TTITLE8=Let Me Touch The Hem
TTITLE9=Worthy Is The Lamb
TTITLE10=More Love, More Power 
TTITLE11=Call On The Name Of The Lord
EXTD=
EXTT0=
EXTT1=
EXTT2=
EXTT3=
EXTT4=
EXTT5=
EXTT6=
EXTT7=
EXTT8=
EXTT9=
EXTT10=
EXTT11=
PLAYORDER=
